<svg width="76" height="51" viewBox="0 0 76 51" fill="none" xmlns="http://www.w3.org/2000/svg">
<path d="M25.0617 30.1053C23.1208 30.1053 21.6849 29.5559 20.7539 28.4571C19.8387 27.3427 19.3811 25.8043 19.3811 23.8422C19.3811 22.2411 19.5626 20.7812 19.9255 19.4627C20.2884 18.1441 20.8013 17.0139 21.464 16.0721C22.1267 15.1303 22.9236 14.4004 23.8546 13.8824C24.8013 13.3643 25.8586 13.1053 27.0262 13.1053C27.9414 13.1053 28.7304 13.2231 29.3931 13.4585C30.0717 13.694 30.6318 14.0236 31.0736 14.4475C31.5155 14.8713 31.8468 15.3814 32.0677 15.9779C32.3044 16.5744 32.4465 17.2258 32.4938 17.9322L29.1091 18.615C29.0775 18.2226 29.0223 17.8616 28.9434 17.5319C28.8803 17.2023 28.762 16.9198 28.5884 16.6843C28.4306 16.4488 28.2097 16.2683 27.9257 16.1427C27.6574 16.0015 27.3103 15.9308 26.8842 15.9308C25.9059 15.9308 25.1564 16.3154 24.6356 17.0846C24.1149 17.8537 23.7441 18.8976 23.5232 20.2162L23.0972 22.7826C23.0498 23.0652 23.0025 23.3477 22.9551 23.6303C22.9236 23.9128 22.9078 24.2425 22.9078 24.6192C22.9078 25.4511 23.0893 26.1026 23.4522 26.5735C23.8151 27.0444 24.4305 27.2799 25.2984 27.2799C25.6771 27.2799 26.0242 27.2092 26.3398 27.068C26.6554 26.911 26.9394 26.7069 27.1919 26.4558C27.4444 26.2046 27.6732 25.9142 27.8783 25.5846C28.0834 25.2392 28.2649 24.8704 28.4227 24.4779L31.4287 25.3727C30.7817 26.911 29.9533 28.0883 28.9434 28.9045C27.9493 29.7051 26.6554 30.1053 25.0617 30.1053Z" fill="#5653F4"/>
<path d="M40.9581 22.5001L41.9049 17.8616H41.6918L37.171 26.3145L35.5142 17.8616H35.3012L34.7094 22.5001L33.4786 29.8228H30.449L33.2183 13.3879H37.2184L38.3545 18.9682H38.5675L41.5498 13.3879H45.5262L42.7569 29.8228H39.7273L40.9581 22.5001Z" fill="#5653F4"/>
<path d="M48.665 30.1053C47.2922 30.1053 46.0614 29.8856 44.9726 29.4461C43.8996 29.0065 43.1106 28.3865 42.6057 27.586L44.8069 25.3727C45.2961 26.0005 45.9115 26.4715 46.6531 26.7854C47.3947 27.0836 48.1364 27.2328 48.878 27.2328C49.7774 27.2328 50.4559 27.0209 50.9135 26.597C51.3869 26.1575 51.6236 25.561 51.6236 24.8076C51.6236 24.2582 51.4658 23.8579 51.1502 23.6067C50.8504 23.3399 50.3691 23.128 49.7064 22.971L48.0732 22.5943C46.874 22.3274 45.9983 21.833 45.446 21.1109C44.9095 20.3731 44.6412 19.4941 44.6412 18.4738C44.6412 17.6575 44.7832 16.9198 45.0673 16.2605C45.3671 15.6012 45.7931 15.0361 46.3454 14.5652C46.8977 14.0943 47.5683 13.7332 48.3573 13.4821C49.1462 13.2309 50.0299 13.1053 51.0082 13.1053C52.1917 13.1053 53.2647 13.3094 54.2272 13.7175C55.1898 14.1257 55.9077 14.6908 56.3811 15.4128L54.0852 17.5084C53.7223 17.0061 53.2647 16.6215 52.7124 16.3547C52.1759 16.0721 51.5526 15.9308 50.8425 15.9308C49.9747 15.9308 49.3277 16.127 48.9017 16.5195C48.4756 16.9119 48.2626 17.4378 48.2626 18.097C48.2626 18.568 48.4046 18.929 48.6886 19.1801C48.9885 19.4313 49.5092 19.6511 50.2508 19.8394L51.813 20.2397C54.1168 20.8205 55.2687 22.2097 55.2687 24.4073C55.2687 25.2549 55.1187 26.0319 54.8189 26.7383C54.5349 27.429 54.1089 28.0255 53.5408 28.5278C52.9728 29.0301 52.2785 29.4225 51.4579 29.7051C50.6374 29.9719 49.7064 30.1053 48.665 30.1053Z" fill="#5653F4"/>
<path d="M12.6667 6.375H63.3333V38.25H12.6667M63.3333 44.625C65.013 44.625 66.6239 43.9533 67.8117 42.7578C68.9994 41.5623 69.6667 39.9408 69.6667 38.25V6.375C69.6667 2.83687 66.8167 0 63.3333 0H12.6667C9.15167 0 6.33333 2.83687 6.33333 6.375V38.25C6.33333 39.9408 7.00059 41.5623 8.18832 42.7578C9.37605 43.9533 10.987 44.625 12.6667 44.625H0V51H76V44.625H63.3333Z" fill="#1E2027"/>
</svg>
