<svg width="29" height="20" viewBox="0 0 29 20" fill="none" xmlns="http://www.w3.org/2000/svg">
<path d="M14.1176 8.57143C14.9204 8.57143 15.7051 8.32008 16.3726 7.84916C17.0401 7.37824 17.5603 6.7089 17.8675 5.92579C18.1747 5.14268 18.2551 4.28096 18.0985 3.44961C17.9419 2.61827 17.5553 1.85463 16.9877 1.25526C16.42 0.65589 15.6968 0.247716 14.9095 0.0823507C14.1221 -0.0830145 13.3061 0.00185695 12.5644 0.326232C11.8227 0.650608 11.1888 1.19992 10.7429 1.9047C10.2969 2.60948 10.0588 3.43808 10.0588 4.28572C10.0588 5.42236 10.4864 6.51245 11.2476 7.31617C12.0088 8.1199 13.0412 8.57143 14.1176 8.57143ZM14.1176 2.85714C14.3852 2.85714 14.6468 2.94093 14.8693 3.0979C15.0918 3.25488 15.2652 3.47799 15.3676 3.73903C15.47 4.00006 15.4968 4.2873 15.4446 4.56442C15.3924 4.84153 15.2635 5.09608 15.0743 5.29587C14.8851 5.49566 14.644 5.63172 14.3816 5.68684C14.1191 5.74196 13.8471 5.71367 13.5999 5.60554C13.3527 5.49742 13.1414 5.31432 12.9927 5.07939C12.8441 4.84446 12.7647 4.56826 12.7647 4.28572C12.7647 3.90684 12.9072 3.54347 13.161 3.27556C13.4147 3.00765 13.7588 2.85714 14.1176 2.85714ZM19.6782 8.37143C20.4698 7.1729 20.8942 5.74688 20.8942 4.28572C20.8942 2.82455 20.4698 1.39853 19.6782 0.200001C20.0673 0.0677349 20.4736 0.000259926 20.8824 1.62095e-06C21.9588 1.62095e-06 22.9912 0.451531 23.7524 1.25526C24.5136 2.05899 24.9412 3.14907 24.9412 4.28572C24.9412 5.42236 24.5136 6.51245 23.7524 7.31617C22.9912 8.1199 21.9588 8.57143 20.8824 8.57143C20.4736 8.57117 20.0673 8.5037 19.6782 8.37143ZM14.1176 11.4286C6 11.4286 6 17.1429 6 17.1429V20H22.2353V17.1429C22.2353 17.1429 22.2353 11.4286 14.1176 11.4286ZM8.70588 17.1429C8.70588 16.7286 9.13882 14.2857 14.1176 14.2857C18.8529 14.2857 19.4482 16.5143 19.5294 17.1429M29 17.1429V20H24.9412V17.1429C24.9096 16.0809 24.6779 15.0363 24.2598 14.0699C23.8417 13.1035 23.2454 12.2347 22.5059 11.5143C29 12.2143 29 17.1429 29 17.1429Z" fill="#AEB8D6"/>
<path d="M4.5 7.7C4.99067 7.7 5.46124 7.88964 5.8082 8.22721C6.15516 8.56477 6.35008 9.02261 6.35008 9.5C6.35008 9.97739 6.15516 10.4352 5.8082 10.7728C5.46124 11.1104 4.99067 11.3 4.5 11.3C4.00933 11.3 3.53876 11.1104 3.1918 10.7728C2.84484 10.4352 2.64992 9.97739 2.64992 9.5C2.64992 9.02261 2.84484 8.56477 3.1918 8.22721C3.53876 7.88964 4.00933 7.7 4.5 7.7ZM4.5 8.6C4.25466 8.6 4.01938 8.69482 3.8459 8.8636C3.67242 9.03239 3.57496 9.26131 3.57496 9.5C3.57496 9.73869 3.67242 9.96761 3.8459 10.1364C4.01938 10.3052 4.25466 10.4 4.5 10.4C4.74534 10.4 4.98062 10.3052 5.1541 10.1364C5.32758 9.96761 5.42504 9.73869 5.42504 9.5C5.42504 9.26131 5.32758 9.03239 5.1541 8.8636C4.98062 8.69482 4.74534 8.6 4.5 8.6ZM3.57496 14C3.45933 14 3.3622 13.919 3.3437 13.811L3.17257 12.6185C2.88118 12.506 2.63142 12.353 2.39091 12.173L1.23924 12.6275C1.13749 12.6635 1.01261 12.6275 0.957105 12.5285L0.0320672 10.9715C-0.0280603 10.8725 -0.000309102 10.751 0.0875695 10.6835L1.06348 9.9365L1.03111 9.5L1.06348 9.05L0.0875695 8.3165C-0.000309102 8.249 -0.0280603 8.1275 0.0320672 8.0285L0.957105 6.4715C1.01261 6.3725 1.13749 6.332 1.23924 6.3725L2.39091 6.8225C2.63142 6.647 2.88118 6.494 3.17257 6.3815L3.3437 5.189C3.3622 5.081 3.45933 5 3.57496 5H5.42504C5.54067 5 5.6378 5.081 5.6563 5.189L5.82743 6.3815C6.11882 6.494 6.36858 6.647 6.60909 6.8225L7.76076 6.3725C7.86251 6.332 7.98739 6.3725 8.04289 6.4715L8.96793 8.0285C9.02806 8.1275 9.00031 8.249 8.91243 8.3165L7.93652 9.05L7.96889 9.5L7.93652 9.95L8.91243 10.6835C9.00031 10.751 9.02806 10.8725 8.96793 10.9715L8.04289 12.5285C7.98739 12.6275 7.86251 12.668 7.76076 12.6275L6.60909 12.1775C6.36858 12.353 6.11882 12.506 5.82743 12.6185L5.6563 13.811C5.6378 13.919 5.54067 14 5.42504 14H3.57496ZM4.15311 5.9L3.98198 7.0745C3.42696 7.187 2.93669 7.475 2.58055 7.8755L1.46588 7.4075L1.11899 7.9925L2.0949 8.69C1.90989 9.2165 1.90989 9.788 2.0949 10.31L1.11436 11.012L1.46125 11.597L2.58517 11.129C2.94131 11.525 3.42696 11.813 3.97735 11.921L4.14849 13.1H4.85151L5.02265 11.9255C5.57304 11.813 6.05869 11.525 6.41483 11.129L7.53875 11.597L7.88564 11.012L6.9051 10.3145C7.09011 9.788 7.09011 9.2165 6.9051 8.69L7.88101 7.9925L7.53412 7.4075L6.41945 7.8755C6.06331 7.475 5.57304 7.187 5.01802 7.079L4.84689 5.9H4.15311Z" fill="#AEB8D6"/>
</svg>
