<svg width="26" height="24" viewBox="0 0 26 24" fill="none" xmlns="http://www.w3.org/2000/svg">
<path d="M13 18.3158C13 18.9474 13.0827 19.5789 13.2127 20.2105H6.5C4.72727 20.2105 3.17909 19.5789 1.90273 18.2274C0.638182 16.9011 0 15.2716 0 13.3642C0 11.7221 0.460909 10.2568 1.38273 8.96842C2.30455 7.68 3.54545 6.85895 5.02273 6.50526C5.51909 4.57263 6.5 3.00632 7.97727 1.80632C9.45455 0.606316 11.1327 0 13 0C15.3045 0 17.2545 0.858947 18.8618 2.57684C20.4691 4.29474 21.2727 6.37895 21.2727 8.8421C22.6318 9.00632 23.7545 9.63789 24.6527 10.7368C24.9364 11.0653 25.1609 11.4316 25.3618 11.8232C24.0618 10.7368 22.4545 10.1053 20.6818 10.1053C20.0909 10.1053 19.5 10.1937 18.9091 10.3326V8.8421C18.9091 7.09895 18.3182 5.60842 17.1836 4.37053C16.0255 3.15789 14.6309 2.52632 13 2.52632C11.3691 2.52632 9.97455 3.15789 8.81636 4.37053C7.68182 5.60842 7.09091 7.09895 7.09091 8.8421H6.5C5.35364 8.8421 4.38455 9.27158 3.58091 10.1432C2.76545 11.0021 2.36364 12.0379 2.36364 13.2632C2.36364 14.4884 2.76545 15.5242 3.58091 16.4211C4.38455 17.2547 5.35364 17.6842 6.5 17.6842H13.0355C13 17.8989 13 18.1011 13 18.3158ZM26 18.3158C26 21.4737 23.6364 24 20.6818 24C17.7273 24 15.3636 21.4737 15.3636 18.3158C15.3636 15.1579 17.7273 12.6316 20.6818 12.6316C23.6364 12.6316 26 15.1579 26 18.3158ZM22.4545 21.5747L17.6327 16.4211C17.3136 16.9516 17.1364 17.6084 17.1364 18.3158C17.1364 20.4126 18.72 22.1053 20.6818 22.1053C21.3436 22.1053 21.9582 21.9158 22.4545 21.5747ZM24.2273 18.3158C24.2273 16.2189 22.6436 14.5263 20.6818 14.5263C20.02 14.5263 19.4055 14.7158 18.9091 15.0568L23.7309 20.2105C24.05 19.68 24.2273 19.0232 24.2273 18.3158Z" fill="#AEB8D6"/>
</svg>
