<svg width="24" height="24" viewBox="0 0 24 24" fill="none" xmlns="http://www.w3.org/2000/svg">
<path d="M10.6667 8H13.3333V5.33333H10.6667V8ZM14.6667 18.6667V16H13.3333V10.6667H9.33333V13.3333H10.6667V16H9.33333V18.6667H14.6667ZM2.66667 0H21.3333C22.8 0 24 1.18667 24 2.66667V21.3333C24 22.04 23.72 22.72 23.2133 23.2133C22.72 23.72 22.04 24 21.3333 24H2.66667C1.96 24 1.28 23.72 0.786667 23.2133C0.28 22.72 0 22.04 0 21.3333V2.66667C0 1.18667 1.18667 0 2.66667 0ZM21.3333 21.3333V2.66667H2.66667V21.3333H21.3333Z" fill="#0058AC"/>
</svg>
